Coordinates
version=1
nRows=13
nColumns=40
inDegrees=yes

Units are S.I. units (second, meters, Newtons, ...)
Angles are in degrees.

endheader
time	pelvis_tilt	pelvis_list	pelvis_rotation	pelvis_tx	pelvis_ty	pelvis_tz	hip_flexion_r	hip_adduction_r	hip_rotation_r	knee_angle_r	knee_angle_r_beta	ankle_angle_r	subtalar_angle_r	mtp_angle_r	hip_flexion_l	hip_adduction_l	hip_rotation_l	knee_angle_l	knee_angle_l_beta	ankle_angle_l	subtalar_angle_l	mtp_angle_l	lumbar_extension	lumbar_bending	lumbar_rotation	arm_flex_r	arm_add_r	arm_rot_r	elbow_flex_r	pro_sup_r	wrist_flex_r	wrist_dev_r	arm_flex_l	arm_add_l	arm_rot_l	elbow_flex_l	pro_sup_l	wrist_flex_l	wrist_dev_l
      0.66000000	     -0.29129257	     -3.32293005	     -5.99598486	     -0.81574285	      0.87361061	     -1.16336376	    -11.25839479	      1.45960165	    -11.50939233	    -22.78556017	     -0.39768305	      9.69227144	      8.90582141	     -6.92469087	     24.68659181	      3.43317393	     13.83965138	    -14.16875465	     -0.24729142	     -5.80812836	     -2.42851622	     -9.54770920	     -9.02490692	      3.41123414	      6.75837234	     18.47494353	    -14.16881260	     19.49764769	     24.58809639	     89.95437384	      0.00000000	      0.00000000	     -5.00567260	      7.38179651	     -3.74909838	     14.83711405	     89.95437384	      0.00000000	      0.00000000
      0.67000000	     -0.03148735	     -2.45002895	     -6.28756533	     -0.80399461	      0.87371511	     -1.16433781	    -11.46682001	     -0.04793510	    -11.73393798	    -24.07705884	     -0.42022395	      8.72964650	      9.56239066	     -7.52183493	     23.63728509	      2.00859816	     12.26478465	    -13.65647685	     -0.23835049	     -8.02613554	      2.45672042	     -9.43715856	     -9.01842873	      2.40870317	      6.75944997	     18.10474803	    -13.75308829	     18.86609189	     24.53584015	     89.95437384	      0.00000000	      0.00000000	     -5.17282464	      7.18675132	     -3.77884143	     14.12258493	     89.95437384	      0.00000000	      0.00000000
      0.68000000	     -0.10186095	     -1.96547121	     -6.47784223	     -0.79256985	      0.87362912	     -1.16501804	    -11.21578392	     -0.84148865	    -11.26268503	    -25.49966193	     -0.44505306	      7.54485385	      8.88436324	     -7.32473464	     23.36902538	      1.41452000	     11.72764568	    -13.98749679	     -0.24412787	     -8.50796822	      2.50427834	     -9.28787121	     -8.70712682	      1.85603264	      6.64346397	     17.75956734	    -13.39652476	     18.84037235	     24.45634541	     89.95437384	      0.00000000	      0.00000000	     -5.37120298	      7.03218970	     -3.81443541	     13.56098978	     89.95437384	      0.00000000	      0.00000000
      0.69000000	      0.00028129	     -1.38509630	     -6.57905592	     -0.78095994	      0.87408496	     -1.16593584	    -11.02477579	     -1.78466448	    -10.95301640	    -27.11817893	     -0.47330151	      6.07741190	      8.16282438	     -7.01592312	     23.18686242	      0.77345396	     12.09376243	    -15.02042482	     -0.26215587	     -7.89733074	      2.94536875	     -9.12639691	     -8.55837374	      1.20387888	      6.40953545	     17.44546446	    -12.97103271	     18.76062904	     24.21285290	     89.95437384	      0.00000000	      0.00000000	     -5.55753178	      6.90257123	     -4.06087559	     13.00243555	     89.95437384	      0.00000000	      0.00000000
      0.70000000	      0.04928575	     -0.90957945	     -6.45011235	     -0.76948682	      0.87495826	     -1.16713975	    -10.70142338	     -2.43185321	    -10.27548329	    -28.78726151	     -0.50243250	      4.64768167	      7.52690709	     -6.67536835	     23.02125467	      0.12465248	     12.01167892	    -16.20805798	     -0.28288398	     -7.16402062	      2.93619234	     -8.92298173	     -8.45016466	      0.68417616	      5.85746232	     16.98246396	    -12.57057907	     18.63408669	     24.40840565	     89.95437384	      0.00000000	      0.00000000	     -5.84733744	      6.81742080	     -4.20227332	     12.89652657	     89.95437384	      0.00000000	      0.00000000
      0.71000000	     -0.25966953	      0.11166074	     -6.76027442	     -0.75785805	      0.87560208	     -1.16830132	     -9.31569468	     -4.13965553	    -10.54945414	    -31.42846685	     -0.54853023	      2.04326217	      6.84427532	     -6.09554172	     23.02927739	     -0.99160926	     12.30654866	    -17.03970551	     -0.29739896	     -5.76164662	      3.43543745	     -8.63729808	     -7.69876081	     -0.38030890	      5.89531892	     16.53295407	    -11.99394665	     18.11342193	     23.63735430	     89.95437384	      0.00000000	      0.00000000	     -5.89469304	      6.74143995	     -5.20986687	     12.15761214	     89.95437384	      0.00000000	      0.00000000
      0.72000000	     -0.19994208	      0.61644569	     -6.68473526	     -0.74630662	      0.87725115	     -1.16943906	     -8.49867561	     -5.00449387	    -10.40796026	    -33.66983439	     -0.58764947	     -0.68666393	      5.88658759	     -5.53291910	     22.55978206	     -1.64496267	     12.24766929	    -17.80218407	     -0.31070673	     -4.72480362	      3.20324957	     -8.43616363	     -7.51840146	     -0.92408984	      5.42351352	     16.18028539	    -11.48043136	     18.11070643	     23.15694516	     89.95437384	      0.00000000	      0.00000000	     -5.93191121	      6.63237849	     -5.54239697	     11.71386475	     89.95437384	      0.00000000	      0.00000000
      0.73000000	     -0.28223127	      1.16075776	     -6.64094839	     -0.73483866	      0.87887161	     -1.17049749	     -7.30998894	     -5.88081535	    -10.15860770	    -36.03862207	     -0.62899261	     -4.25764863	      4.83243038	     -4.81396137	     22.08548554	     -2.32312539	     12.23899131	    -18.20733616	     -0.31777796	     -3.85074116	      3.27106871	     -8.08277860	     -7.16160316	     -1.50052592	      5.01397764	     15.72541645	    -10.98254079	     18.09332071	     22.73253862	     89.95437384	      0.00000000	      0.00000000	     -5.95559232	      6.57183835	     -6.05864566	     11.29611384	     89.95437384	      0.00000000	      0.00000000
      0.74000000	     -0.64584943	      1.84724178	     -6.50785146	     -0.72385422	      0.88017360	     -1.17191516	     -5.57157326	     -6.75367593	     -9.63587444	    -38.55960434	     -0.67299205	     -8.06667306	      2.57100758	     -3.05403457	     21.67566311	     -3.52645043	     10.81061349	    -17.99468416	     -0.31406649	     -2.89124052	      5.37482513	     -6.33784133	     -6.50860856	     -2.16987487	      4.54754923	     15.16342578	    -10.50400072	     17.87531460	     22.43578733	     89.95437384	      0.00000000	      0.00000000	     -5.98804307	      6.66457107	     -7.43991357	     11.14027497	     89.95437384	      0.00000000	      0.00000000
      0.75000000	     -0.70760760	      2.18375612	     -6.36258151	     -0.71264130	      0.88181369	     -1.17328911	     -4.23238393	     -7.31059056	     -9.14932378	    -40.82384283	     -0.71251047	    -12.36229763	      1.30246667	     -1.70631568	     20.87310641	     -4.14680192	     10.55326394	    -17.78410095	     -0.31039112	     -2.28579522	      5.29711320	     -5.57890616	     -6.20787768	     -2.47856294	      4.01858413	     14.67564022	    -10.17078909	     18.15061685	     22.17461105	     89.95437384	      0.00000000	      0.00000000	     -5.93637601	      6.62073672	     -8.12015253	     10.90155180	     89.95437384	      0.00000000	      0.00000000
      0.76000000	     -0.79947092	      2.40137799	     -6.27086519	     -0.70180093	      0.88325174	     -1.17444042	     -2.78170554	     -7.54948888	     -8.06853824	    -43.06391155	     -0.75160705	    -16.10573632	      0.08238786	     -0.85301145	     20.10038440	     -4.62818330	     10.37434977	    -17.54711816	     -0.30625499	     -1.64001098	      5.14577673	     -5.26709040	     -5.91979889	     -2.65751901	      3.52100181	     14.22751340	     -9.84902157	     18.44182709	     21.90694470	     89.95437384	      0.00000000	      0.00000000	     -5.84387589	      6.56627589	     -8.48716313	     10.78194148	     89.95437384	      0.00000000	      0.00000000
      0.77000000	     -0.67909291	      2.30769179	     -6.06647637	     -0.69136258	      0.88487097	     -1.17559811	     -1.52768132	     -7.36087737	     -6.93483386	    -45.44550962	     -0.79317377	    -17.79442026	     -0.54445542	     -0.55242712	     19.27208128	     -4.76997258	     10.18484916	    -17.67311060	     -0.30845397	     -1.11234637	      4.82247502	     -5.12384133	     -5.98388534	     -2.50860437	      2.95863299	     13.85552384	     -9.60235612	     18.67996169	     21.69726265	     89.95437384	      0.00000000	      0.00000000	     -5.60071588	      6.52325591	     -8.66777023	     10.74559504	     89.95437384	      0.00000000	      0.00000000
      0.78000000	     -1.40045465	      2.43872968	     -6.10016700	     -0.68173917	      0.88481812	     -1.17657839	      1.06788904	     -7.16907666	     -5.48041691	    -48.34011433	     -0.84369416	    -18.21939467	     -3.21693491	      0.12114025	     19.49889498	     -4.92148068	     10.62163737	    -17.88509977	     -0.31215388	     -0.51499559	      4.58141319	     -4.51296043	     -5.08450849	     -2.52967036	      2.59206220	     13.29837133	     -9.51342554	     19.53591049	     21.81711013	     89.95437384	      0.00000000	      0.00000000	     -5.46051973	      6.51143612	     -8.94284641	     10.86053585	     89.95437384	      0.00000000	      0.00000000
